<?xml version="1.0" encoding="UTF-8"?>
<!--Generator: Apple Native CoreSVG 175.5-->
<!DOCTYPE svg
PUBLIC "-//W3C//DTD SVG 1.1//EN"
       "http://www.w3.org/Graphics/SVG/1.1/DTD/svg11.dtd">
<svg version="1.1" xmlns="http://www.w3.org/2000/svg" xmlns:xlink="http://www.w3.org/1999/xlink" width="22.6318" height="24.2139">
 <g>
  <rect height="24.2139" opacity="0" width="22.6318" x="0" y="0"/>
  <path d="M1.24512 24.2139C1.94824 24.2139 2.50488 23.6865 2.50488 22.998L2.50488 1.24512C2.50488 0.556641 1.94824 0.0146484 1.24512 0.0146484C0.556641 0.0146484 0 0.556641 0 1.24512L0 22.998C0 23.6865 0.556641 24.2139 1.24512 24.2139ZM20.5225 23.6279C21.6797 23.6279 22.6318 22.749 22.6318 21.1084L22.6318 3.12012C22.6318 1.47949 21.6797 0.600586 20.5225 0.600586C19.9219 0.600586 19.4385 0.791016 18.8379 1.14258L3.91113 9.93164C2.87109 10.5469 2.43164 11.2793 2.43164 12.1143C2.43164 12.9492 2.87109 13.6816 3.91113 14.2969L18.8379 23.0859C19.4385 23.4375 19.9219 23.6279 20.5225 23.6279ZM19.8926 20.918C19.79 20.918 19.6729 20.874 19.5264 20.7861L5.61035 12.5244C5.40527 12.4072 5.28809 12.3047 5.28809 12.1143C5.28809 11.9092 5.39062 11.8213 5.61035 11.7041L19.5264 3.44238C19.6729 3.35449 19.79 3.31055 19.8926 3.31055C20.0977 3.31055 20.2881 3.45703 20.2881 3.75L20.2881 20.4785C20.2881 20.7715 20.0977 20.918 19.8926 20.918Z" fill="#ffffff" fill-opacity="0.85"/>
 </g>
</svg>
