<?xml version="1.0" encoding="UTF-8"?>
<!--Generator: Apple Native CoreSVG 175.5-->
<!DOCTYPE svg
PUBLIC "-//W3C//DTD SVG 1.1//EN"
       "http://www.w3.org/Graphics/SVG/1.1/DTD/svg11.dtd">
<svg version="1.1" xmlns="http://www.w3.org/2000/svg" xmlns:xlink="http://www.w3.org/1999/xlink" width="31.095" height="27.1436">
 <g>
  <rect height="27.1436" opacity="0" width="31.095" x="0" y="0"/>
  <path d="M0.488907 12.3633L5.39613 17.2852C6.06996 17.959 7.16859 17.9736 7.82777 17.1533L10.9186 13.3447C11.1237 13.1104 11.4459 13.2422 11.4459 13.5352L11.4459 20.0244L5.90883 19.4092C4.00453 19.1895 3.3893 21.9873 5.22035 22.5879L11.5045 24.668C11.1969 25.9717 12.3248 27.085 13.6139 26.6602L15.5475 26.0303L17.4811 26.6602C18.7702 27.085 19.8981 25.9717 19.5905 24.668L25.8893 22.5879C27.7204 21.9873 27.0905 19.1895 25.1862 19.4092L19.6491 20.0244L19.6491 13.5352C19.6491 13.2422 19.986 13.1104 20.1764 13.3447L23.2672 17.1533C23.9264 17.9736 25.025 17.959 25.6989 17.2852L30.6061 12.3633C31.2506 11.7041 31.2653 10.6934 30.6061 10.0488C29.9762 9.41895 28.9362 9.41895 28.2916 10.0488L24.6735 13.6816L20.9821 9.15527C20.3668 8.4082 19.444 7.93945 18.4625 7.93945L12.6471 7.93945C11.651 7.93945 10.7428 8.4082 10.1129 9.15527L6.42152 13.6816L2.80336 10.0488C2.15883 9.41895 1.11879 9.41895 0.488907 10.0488C-0.170273 10.6934-0.155624 11.7041 0.488907 12.3633ZM15.5475 6.40137C17.3053 6.40137 18.7262 4.96582 18.7262 3.17871C18.7262 1.4209 17.3053 0 15.5475 0C13.7604 0 12.3248 1.4209 12.3248 3.17871C12.3248 4.96582 13.7604 6.40137 15.5475 6.40137Z" fill="#ffffff" fill-opacity="0.85"/>
 </g>
</svg>
