<?xml version="1.0" encoding="UTF-8"?>
<!--Generator: Apple Native CoreSVG 175.5-->
<!DOCTYPE svg
PUBLIC "-//W3C//DTD SVG 1.1//EN"
       "http://www.w3.org/Graphics/SVG/1.1/DTD/svg11.dtd">
<svg version="1.1" xmlns="http://www.w3.org/2000/svg" xmlns:xlink="http://www.w3.org/1999/xlink" width="29.8828" height="29.8975">
 <g>
  <rect height="29.8975" opacity="0" width="29.8828" x="0" y="0"/>
  <path d="M14.9414 29.8828C23.1152 29.8828 29.8828 23.1006 29.8828 14.9414C29.8828 6.76758 23.1006 0 14.9268 0C6.76758 0 0 6.76758 0 14.9414C0 23.1006 6.78223 29.8828 14.9414 29.8828ZM25.7227 14.9561C25.7227 15.3662 25.5029 15.7178 25.0049 16.0107L17.8271 20.2441C17.5195 20.4199 17.2998 20.4932 17.0068 20.4932C16.4502 20.4932 15.9961 20.0977 15.9961 19.3066L15.9961 15.4248C15.8789 15.6445 15.6885 15.835 15.3955 16.0107L8.20312 20.2441C7.91016 20.4199 7.67578 20.4932 7.38281 20.4932C6.84082 20.4932 6.37207 20.0977 6.37207 19.3066L6.37207 10.6201C6.37207 9.8291 6.84082 9.43359 7.38281 9.43359C7.67578 9.43359 7.91016 9.50684 8.20312 9.68262L15.3955 13.916C15.6885 14.0918 15.8789 14.2822 15.9961 14.502L15.9961 10.6201C15.9961 9.8291 16.4502 9.43359 17.0068 9.43359C17.2998 9.43359 17.5195 9.50684 17.8271 9.68262L25.0049 13.916C25.5029 14.209 25.7227 14.5605 25.7227 14.9561Z" fill="#ffffff" fill-opacity="0.85"/>
 </g>
</svg>
