<?xml version="1.0" encoding="UTF-8"?>
<!--Generator: Apple Native CoreSVG 175.5-->
<!DOCTYPE svg
PUBLIC "-//W3C//DTD SVG 1.1//EN"
       "http://www.w3.org/Graphics/SVG/1.1/DTD/svg11.dtd">
<svg version="1.1" xmlns="http://www.w3.org/2000/svg" xmlns:xlink="http://www.w3.org/1999/xlink" width="31.626" height="27.7881">
 <g>
  <rect height="27.7881" opacity="0" width="31.626" x="0" y="0"/>
  <path d="M0.424805 1.77246C0.117188 3.2666 0 5.21484 0 6.51855C0 17.4756 6.51855 24.7119 16.4795 24.7119C22.8955 24.7119 25.9131 20.9326 26.5723 19.7168L24.7412 19.6729C26.6455 21.665 27.4951 23.8037 28.4619 26.8359C28.6816 27.5391 29.165 27.7881 29.6777 27.7881C30.7617 27.7881 31.626 26.8506 31.626 25.5615C31.626 23.54 28.7256 20.0244 27.2168 18.6035C20.8008 12.6855 11.0303 16.1865 8.51074 9.65332C8.32031 9.15527 8.84766 8.71582 9.33105 9.21387C14.3848 14.2676 20.8887 10.0049 27.2168 15.835C27.7148 16.2744 28.3008 16.04 28.3887 15.5127C28.4619 15.0879 28.5059 14.4141 28.5059 13.7695C28.5059 6.62109 23.5254 3.17871 16.5234 3.17871C14.1797 3.17871 11.4404 3.75 9.28711 3.75C6.92871 3.75 4.27734 3.55957 2.16797 1.30371C1.56738 0.688477 0.65918 0.776367 0.424805 1.77246Z" fill="#ffffff" fill-opacity="0.85"/>
 </g>
</svg>
