<?xml version="1.0" encoding="UTF-8"?>
<!--Generator: Apple Native CoreSVG 175.5-->
<!DOCTYPE svg
PUBLIC "-//W3C//DTD SVG 1.1//EN"
       "http://www.w3.org/Graphics/SVG/1.1/DTD/svg11.dtd">
<svg version="1.1" xmlns="http://www.w3.org/2000/svg" xmlns:xlink="http://www.w3.org/1999/xlink" width="29.8828" height="29.8975">
 <g>
  <rect height="29.8975" opacity="0" width="29.8828" x="0" y="0"/>
  <path d="M14.9414 29.8828C23.1152 29.8828 29.8828 23.1006 29.8828 14.9414C29.8828 6.76758 23.1006 0 14.9268 0C6.76758 0 0 6.76758 0 14.9414C0 23.1006 6.78223 29.8828 14.9414 29.8828ZM4.18945 14.9561C4.18945 14.5605 4.40918 14.209 4.90723 13.916L12.0996 9.68262C12.3926 9.50684 12.6123 9.43359 12.9053 9.43359C13.4619 9.43359 13.916 9.8291 13.916 10.6201L13.916 14.502C14.0332 14.2822 14.2236 14.0918 14.5166 13.916L21.709 9.68262C22.002 9.50684 22.2363 9.43359 22.5293 9.43359C23.0713 9.43359 23.54 9.8291 23.54 10.6201L23.54 19.3066C23.54 20.0977 23.0713 20.4932 22.5293 20.4932C22.2363 20.4932 22.002 20.4199 21.709 20.2441L14.5166 16.0107C14.2236 15.835 14.0332 15.6445 13.916 15.4248L13.916 19.3066C13.916 20.0977 13.4619 20.4932 12.9053 20.4932C12.6123 20.4932 12.3926 20.4199 12.0996 20.2441L4.90723 16.0107C4.40918 15.7178 4.18945 15.3662 4.18945 14.9561Z" fill="#ffffff" fill-opacity="0.85"/>
 </g>
</svg>
