<?xml version="1.0" encoding="UTF-8"?>
<!--Generator: Apple Native CoreSVG 175.5-->
<!DOCTYPE svg
PUBLIC "-//W3C//DTD SVG 1.1//EN"
       "http://www.w3.org/Graphics/SVG/1.1/DTD/svg11.dtd">
<svg version="1.1" xmlns="http://www.w3.org/2000/svg" xmlns:xlink="http://www.w3.org/1999/xlink" width="22.6318" height="24.2139">
 <g>
  <rect height="24.2139" opacity="0" width="22.6318" x="0" y="0"/>
  <path d="M21.3867 24.2139C22.0752 24.2139 22.6318 23.6865 22.6318 22.998L22.6318 1.24512C22.6318 0.556641 22.0752 0.0146484 21.3867 0.0146484C20.6982 0.0146484 20.127 0.556641 20.127 1.24512L20.127 22.998C20.127 23.6865 20.6982 24.2139 21.3867 24.2139ZM2.10938 23.6279C2.70996 23.6279 3.19336 23.4375 3.79395 23.0859L18.7207 14.2969C19.7607 13.6816 20.2002 12.9492 20.2002 12.1143C20.2002 11.2793 19.7607 10.5469 18.7207 9.93164L3.79395 1.14258C3.19336 0.791016 2.70996 0.600586 2.10938 0.600586C0.952148 0.600586 0 1.47949 0 3.12012L0 21.1084C0 22.749 0.952148 23.6279 2.10938 23.6279ZM2.75391 20.918C2.53418 20.918 2.34375 20.7715 2.34375 20.4785L2.34375 3.75C2.34375 3.45703 2.53418 3.31055 2.75391 3.31055C2.8418 3.31055 2.95898 3.35449 3.10547 3.44238L17.0361 11.7041C17.2412 11.8213 17.3438 11.9092 17.3438 12.1143C17.3438 12.3047 17.2266 12.4072 17.0361 12.5244L3.10547 20.7861C2.95898 20.874 2.8418 20.918 2.75391 20.918Z" fill="#ffffff" fill-opacity="0.85"/>
 </g>
</svg>
