<?xml version="1.0" encoding="UTF-8"?>
<!--Generator: Apple Native CoreSVG 175.5-->
<!DOCTYPE svg
PUBLIC "-//W3C//DTD SVG 1.1//EN"
       "http://www.w3.org/Graphics/SVG/1.1/DTD/svg11.dtd">
<svg version="1.1" xmlns="http://www.w3.org/2000/svg" xmlns:xlink="http://www.w3.org/1999/xlink" width="28.2861" height="35.5225">
 <g>
  <rect height="35.5225" opacity="0" width="28.2861" x="0" y="0"/>
  <path d="M12.6416 33.4131C17.9443 33.4131 22.2363 30.7764 24.1992 26.2061C24.4189 25.6934 24.3896 25.2393 24.126 24.9756C23.9062 24.7559 23.5107 24.7266 23.0566 24.8877C21.8555 25.3711 20.4639 25.6055 18.8672 25.6055C12.2461 25.6055 7.9541 21.4453 7.9541 14.9414C7.9541 13.2861 8.26172 11.4258 8.75977 10.415C9.02344 9.90234 9.00879 9.44824 8.78906 9.18457C8.54004 8.8916 8.08594 8.84766 7.5 9.06738C3.00293 10.8545 0 15.5713 0 20.9326C0 28.0518 5.24414 33.4131 12.6416 33.4131ZM20.6982 6.22559L17.373 6.22559L17.373 6.15234L20.7861 1.65527C21.0938 1.24512 21.2109 1.01074 21.2109 0.74707C21.2109 0.27832 20.8594 0 20.3613 0L15.6738 0C15.2197 0 14.8975 0.307617 14.8975 0.761719C14.8975 1.23047 15.2197 1.52344 15.6738 1.52344L18.8086 1.52344L18.8086 1.59668L15.3516 6.0791C15.0439 6.47461 14.9414 6.69434 14.9414 7.00195C14.9414 7.42676 15.2637 7.73438 15.7617 7.73438L20.6982 7.73438C21.1523 7.73438 21.4746 7.45605 21.4746 6.97266C21.4746 6.51855 21.1523 6.22559 20.6982 6.22559ZM27.5537 11.8359L25.21 11.8359L25.21 11.7773L27.6416 8.58398C27.9199 8.21777 28.0371 7.99805 28.0371 7.71973C28.0371 7.29492 27.7002 7.03125 27.2461 7.03125L23.6572 7.03125C23.2471 7.03125 22.9395 7.32422 22.9395 7.73438C22.9395 8.20312 23.2471 8.48145 23.6572 8.48145L25.7666 8.48145L25.7666 8.54004L23.3643 11.7041C23.0859 12.0557 22.9834 12.29 22.9834 12.583C22.9834 12.9785 23.291 13.2715 23.7451 13.2715L27.5537 13.2715C27.9932 13.2715 28.2861 13.0078 28.2861 12.5537C28.2861 12.1143 27.9932 11.8359 27.5537 11.8359ZM21.0938 16.8311L19.1016 16.8311L19.1016 16.7725L21.167 14.0332C21.4307 13.667 21.5479 13.4619 21.5479 13.2129C21.5479 12.8027 21.2256 12.5537 20.7861 12.5537L17.6367 12.5537C17.2412 12.5537 16.9482 12.8174 16.9482 13.2275C16.9482 13.667 17.2412 13.916 17.6367 13.916L19.3945 13.916L19.3945 13.9893L17.3584 16.7139C17.0947 17.0508 16.9922 17.2705 16.9922 17.5488C16.9922 17.9297 17.2852 18.208 17.71 18.208L21.0938 18.208C21.5039 18.208 21.7822 17.9297 21.7822 17.5195C21.7822 17.1094 21.5039 16.8311 21.0938 16.8311Z" fill="#ffffff" fill-opacity="0.85"/>
 </g>
</svg>
